<?xml version="1.0" encoding="UTF-8" standalone="no" ?>
<!DOCTYPE svg PUBLIC "-//W3C//DTD SVG 1.1//EN" "http://www.w3.org/Graphics/SVG/1.1/DTD/svg11.dtd">
<svg xmlns="http://www.w3.org/2000/svg" xmlns:xlink="http://www.w3.org/1999/xlink" version="1.1" width="50" height="50" viewBox="0 0 50 50" xml:space="preserve">
<desc>Created with Fabric.js 5.2.4</desc>
<defs>
</defs>
<g transform="matrix(1 0 0 1 25 25)" id="12d80de5-9ff0-4b33-b2ba-92463333aff3"  >
<rect style="stroke: none; stroke-width: 1; stroke-dasharray: none; stroke-linecap: butt; stroke-dashoffset: 0; stroke-linejoin: miter; stroke-miterlimit: 4; fill: rgb(255,255,255); fill-rule: nonzero; opacity: 1; visibility: hidden;" vector-effect="non-scaling-stroke"  x="-25" y="-25" rx="0" ry="0" width="50" height="50" />
</g>
<g transform="matrix(Infinity NaN NaN Infinity 0 0)" id="7318b999-b8ac-4d6e-88d3-dc268bb3f987"  >
</g>
<g transform="matrix(0.05 0 0 0.05 77.69 77.69)"  >
<g style="" vector-effect="non-scaling-stroke"   >
		<g transform="matrix(1 0 0 1 0 0)"  >
<path style="stroke: none; stroke-width: 1; stroke-dasharray: none; stroke-linecap: butt; stroke-dashoffset: 0; stroke-linejoin: miter; stroke-miterlimit: 4; fill: none; fill-rule: nonzero; opacity: 1;" vector-effect="non-scaling-stroke"  transform=" translate(-12, -12)" d="M 0 0 L 24 0 L 24 24 L 0 24 z" stroke-linecap="round" />
</g>
		<g transform="matrix(1 0 0 1 0 -0.06)"  >
<path style="stroke: none; stroke-width: 1; stroke-dasharray: none; stroke-linecap: butt; stroke-dashoffset: 0; stroke-linejoin: miter; stroke-miterlimit: 4; fill: rgb(0,0,0); fill-rule: nonzero; opacity: 1;" vector-effect="non-scaling-stroke"  transform=" translate(-12, -11.94)" d="M 12 2 C 6.477 2 2 6.477 2 12 C 2 16.991 5.657 21.128 10.438 21.878999999999998 L 10.438 14.89 L 7.898000000000001 14.89 L 7.898000000000001 12 L 10.438 12 L 10.438 9.797 C 10.438 7.291 11.93 5.907 14.215 5.907 C 15.309 5.907 16.453 6.102 16.453 6.102 L 16.453 8.562000000000001 L 15.193 8.562000000000001 C 13.95 8.562000000000001 13.562999999999999 9.333000000000002 13.562999999999999 10.124 L 13.562999999999999 12 L 16.336 12 L 15.892999999999999 14.89 L 13.562999999999999 14.89 L 13.562999999999999 21.879 C 18.343 21.129 22 16.99 22 12 C 22 6.477 17.523 2 12 2 z" stroke-linecap="round" />
</g>
</g>
</g>
<g transform="matrix(2.27 0 0 2.27 25 25)"  >
<g style="" vector-effect="non-scaling-stroke"   >
		<g transform="matrix(1 0 0 1 0 0)"  >
<path style="stroke: none; stroke-width: 1; stroke-dasharray: none; stroke-linecap: butt; stroke-dashoffset: 0; stroke-linejoin: miter; stroke-miterlimit: 4; fill: none; fill-rule: nonzero; opacity: 1;" vector-effect="non-scaling-stroke"  transform=" translate(-12, -12)" d="M 0 0 L 24 0 L 24 24 L 0 24 z" stroke-linecap="round" />
</g>
		<g transform="matrix(1 0 0 1 0 -0.06)"  >
<path style="stroke: none; stroke-width: 1; stroke-dasharray: none; stroke-linecap: butt; stroke-dashoffset: 0; stroke-linejoin: miter; stroke-miterlimit: 4; fill: rgb(0,0,0); fill-rule: nonzero; opacity: 1;" vector-effect="non-scaling-stroke"  transform=" translate(-12, -11.94)" d="M 12 2 C 6.477 2 2 6.477 2 12 C 2 16.991 5.657 21.128 10.438 21.878999999999998 L 10.438 14.89 L 7.898000000000001 14.89 L 7.898000000000001 12 L 10.438 12 L 10.438 9.797 C 10.438 7.291 11.93 5.907 14.215 5.907 C 15.309 5.907 16.453 6.102 16.453 6.102 L 16.453 8.562000000000001 L 15.193 8.562000000000001 C 13.95 8.562000000000001 13.562999999999999 9.333000000000002 13.562999999999999 10.124 L 13.562999999999999 12 L 16.336 12 L 15.892999999999999 14.89 L 13.562999999999999 14.89 L 13.562999999999999 21.879 C 18.343 21.129 22 16.99 22 12 C 22 6.477 17.523 2 12 2 z" stroke-linecap="round" />
</g>
</g>
</g>
</svg>