<?xml version="1.0" standalone="no"?>
<!DOCTYPE svg PUBLIC "-//W3C//DTD SVG 20010904//EN"
 "http://www.w3.org/TR/2001/REC-SVG-20010904/DTD/svg10.dtd">
<svg version="1.0" xmlns="http://www.w3.org/2000/svg"
 width="85pt" height="27.2pt" viewBox="0 0 1101.000000 353.000000"
 preserveAspectRatio="xMidYMid meet">

<g transform="translate(0.000000,353.000000) scale(0.100000,-0.100000)"
fill="#000000" stroke="none">
<path d="M5635 3306 c-225 -52 -363 -184 -422 -406 -23 -88 -23 -290 0 -380
56 -212 202 -355 412 -401 91 -20 334 -17 415 5 204 56 342 200 386 404 34
162 12 388 -51 513 -33 64 -110 147 -176 190 -92 58 -185 81 -354 85 -104 3
-168 -1 -210 -10z m304 -300 c51 -36 76 -75 96 -151 27 -107 15 -286 -25 -365
-36 -70 -105 -111 -189 -112 -92 0 -163 47 -203 136 -20 46 -23 66 -23 191 0
153 8 188 56 255 42 58 96 81 180 78 54 -3 74 -9 108 -32z"/>
<path d="M240 2710 l0 -590 200 0 200 0 0 240 0 240 228 2 227 3 3 118 3 117
-231 0 -230 0 0 105 0 105 265 0 265 0 0 125 0 125 -465 0 -465 0 0 -590z"/>
<path d="M1380 2912 c0 -352 2 -396 19 -465 26 -99 42 -129 110 -200 97 -102
187 -133 421 -143 156 -7 266 9 355 50 73 33 163 124 199 199 51 108 56 158
56 570 l0 377 -194 0 -195 0 -3 -388 -3 -388 -25 -49 c-62 -120 -241 -128
-317 -14 l-28 43 -3 398 -3 398 -194 0 -195 0 0 -388z"/>
<path d="M2790 2710 l0 -590 480 0 480 0 0 145 0 145 -285 0 -285 0 0 445 0
445 -195 0 -195 0 0 -590z"/>
<path d="M3920 2709 l0 -591 398 5 c489 5 539 14 631 106 81 81 111 208 77
325 -22 75 -90 146 -165 172 -28 10 -51 21 -51 24 0 3 21 16 47 30 172 91 170
365 -3 466 -86 51 -119 54 -541 54 l-393 0 0 -591z m651 313 c33 -37 39 -93
13 -130 -28 -40 -66 -52 -169 -52 l-95 0 0 111 0 111 111 -4 111 -3 29 -33z
m14 -428 c42 -19 69 -73 61 -118 -14 -74 -89 -106 -253 -106 l-73 0 0 120 0
120 116 0 c85 0 125 -4 149 -16z"/>
<path d="M6650 2912 c0 -352 2 -396 19 -465 26 -99 42 -129 110 -200 97 -102
187 -133 421 -143 156 -7 266 9 355 50 71 32 163 123 198 196 51 105 57 161
57 573 l0 377 -194 0 -195 0 -3 -388 -3 -388 -25 -49 c-62 -120 -241 -128
-317 -14 l-28 43 -3 398 -3 398 -194 0 -195 0 0 -388z"/>
<path d="M8060 2711 l0 -591 200 0 200 0 0 240 c0 267 -3 257 68 221 44 -23
40 -17 173 -261 l106 -195 223 -3 222 -2 -94 181 c-108 209 -162 283 -232 318
l-49 24 41 13 c144 42 233 159 234 307 0 40 -5 91 -11 113 -15 56 -64 126
-110 158 -83 58 -99 60 -553 64 l-418 3 0 -590z m648 329 c39 -24 56 -62 48
-109 -11 -71 -66 -100 -203 -108 l-93 -6 0 122 0 121 108 0 c89 0 112 -3 140
-20z"/>
<path d="M9380 2710 l0 -590 185 0 185 0 0 302 0 301 204 -299 203 -299 187
-3 186 -2 0 590 0 590 -185 0 -185 0 -2 -300 -3 -300 -204 300 -204 300 -183
0 -184 0 0 -590z"/>
<path d="M625 1434 c-142 -30 -262 -111 -334 -223 -79 -123 -113 -352 -77
-526 22 -109 82 -229 149 -297 114 -115 223 -152 457 -153 169 0 229 12 323
63 94 51 203 200 222 304 l7 37 -104 31 c-56 17 -124 38 -150 46 -72 23 -87
17 -108 -45 -38 -107 -105 -161 -201 -161 -96 0 -165 56 -195 158 -22 73 -22
265 0 335 63 203 290 236 382 55 21 -41 29 -49 47 -45 12 3 88 20 170 38 89
20 147 37 147 44 0 7 -17 46 -37 86 -69 138 -179 222 -331 254 -92 19 -274 18
-367 -1z"/>
<path d="M9152 1439 c-287 -48 -462 -274 -462 -599 0 -308 150 -521 416 -587
52 -13 110 -17 234 -17 226 1 330 30 508 140 l72 45 0 250 0 249 -295 0 -295
0 0 -120 0 -120 120 0 121 0 -3 -57 -3 -58 -67 -33 c-157 -77 -308 -40 -372
90 -54 112 -56 323 -4 435 75 161 307 179 384 31 19 -36 35 -36 234 1 147 26
155 29 153 50 -6 46 -59 138 -109 187 -63 62 -125 92 -224 110 -83 15 -326 17
-408 3z"/>
<path d="M1560 840 l0 -590 480 0 480 0 0 145 0 145 -282 2 -283 3 -3 443 -2
442 -195 0 -195 0 0 -590z"/>
<path d="M2690 840 l0 -590 515 0 515 0 0 135 0 135 -315 0 -315 0 0 115 0
115 285 0 285 0 0 120 0 120 -285 0 -285 0 0 95 0 95 305 0 305 0 0 125 0 125
-505 0 -505 0 0 -590z"/>
<path d="M4024 840 l-222 -590 202 0 201 0 29 100 28 100 192 -2 191 -3 23
-75 c41 -135 11 -120 246 -120 l204 0 -222 590 -221 590 -215 0 -215 0 -221
-590z m487 55 c28 -93 54 -176 56 -182 4 -10 -22 -13 -112 -13 -99 0 -116 2
-112 15 4 8 29 91 58 185 29 94 53 169 55 168 1 -2 26 -79 55 -173z"/>
<path d="M5240 840 l0 -590 185 0 185 0 2 301 3 302 205 -302 205 -301 188 0
187 0 0 590 0 590 -185 0 -185 0 0 -301 c0 -165 -4 -298 -8 -295 -4 2 -98 137
-207 300 l-200 295 -187 0 -188 1 0 -590z"/>
<path d="M6660 840 l0 -590 200 0 200 0 0 590 0 590 -200 0 -200 0 0 -590z"/>
<path d="M7330 840 l0 -590 185 0 185 0 0 302 0 301 204 -299 203 -299 187 -3
186 -2 0 590 0 590 -185 0 -185 0 -2 -300 -3 -300 -204 300 -204 300 -183 0
-184 0 0 -590z"/>
</g>
</svg>
