<?xml version="1.0" encoding="UTF-8" standalone="no" ?>
<!DOCTYPE svg PUBLIC "-//W3C//DTD SVG 1.1//EN" "http://www.w3.org/Graphics/SVG/1.1/DTD/svg11.dtd">
<svg xmlns="http://www.w3.org/2000/svg" xmlns:xlink="http://www.w3.org/1999/xlink" version="1.1" width="50" height="50" viewBox="0 0 50 50" xml:space="preserve">
<desc>Created with Fabric.js 5.2.4</desc>
<defs>
</defs>
<rect x="0" y="0" width="100%" height="100%" fill="transparent"></rect>
<g transform="matrix(1 0 0 1 25 25)" id="12d80de5-9ff0-4b33-b2ba-92463333aff3"  >
<rect style="stroke: none; stroke-width: 1; stroke-dasharray: none; stroke-linecap: butt; stroke-dashoffset: 0; stroke-linejoin: miter; stroke-miterlimit: 4; fill: rgb(255,0,0); fill-rule: nonzero; opacity: 1; visibility: hidden;" vector-effect="non-scaling-stroke"  x="-25" y="-25" rx="0" ry="0" width="50" height="50" />
</g>
<g transform="matrix(Infinity NaN NaN Infinity 0 0)" id="7318b999-b8ac-4d6e-88d3-dc268bb3f987"  >
</g>
<g transform="matrix(0.05 0 0 0.05 77.69 77.69)"  >
<g style="" vector-effect="non-scaling-stroke"   >
		<g transform="matrix(1 0 0 1 0 0)"  >
<path style="stroke: none; stroke-width: 1; stroke-dasharray: none; stroke-linecap: butt; stroke-dashoffset: 0; stroke-linejoin: miter; stroke-miterlimit: 4; fill: none; fill-rule: nonzero; opacity: 1;" vector-effect="non-scaling-stroke"  transform=" translate(-12, -12)" d="M 0 0 L 24 0 L 24 24 L 0 24 z" stroke-linecap="round" />
</g>
		<g transform="matrix(1 0 0 1 0 -0.06)"  >
<path style="stroke: none; stroke-width: 1; stroke-dasharray: none; stroke-linecap: butt; stroke-dashoffset: 0; stroke-linejoin: miter; stroke-miterlimit: 4; fill: rgb(0,0,0); fill-rule: nonzero; opacity: 1;" vector-effect="non-scaling-stroke"  transform=" translate(-12, -11.94)" d="M 12 2 C 6.477 2 2 6.477 2 12 C 2 16.991 5.657 21.128 10.438 21.878999999999998 L 10.438 14.89 L 7.898000000000001 14.89 L 7.898000000000001 12 L 10.438 12 L 10.438 9.797 C 10.438 7.291 11.93 5.907 14.215 5.907 C 15.309 5.907 16.453 6.102 16.453 6.102 L 16.453 8.562000000000001 L 15.193 8.562000000000001 C 13.95 8.562000000000001 13.562999999999999 9.333000000000002 13.562999999999999 10.124 L 13.562999999999999 12 L 16.336 12 L 15.892999999999999 14.89 L 13.562999999999999 14.89 L 13.562999999999999 21.879 C 18.343 21.129 22 16.99 22 12 C 22 6.477 17.523 2 12 2 z" stroke-linecap="round" />
</g>
</g>
</g>
<g transform="matrix(0.09 0 0 0.09 25 25)" id="fb27cbad-078a-4011-a41d-f6eb9b81f437"  >
<path style="stroke: rgb(0,0,0); stroke-opacity: 0; stroke-width: 0; stroke-dasharray: none; stroke-linecap: butt; stroke-dashoffset: 0; stroke-linejoin: miter; stroke-miterlimit: 4; fill: rgb(0,0,0); fill-rule: nonzero; opacity: 1;" vector-effect="non-scaling-stroke"  transform=" translate(-255.95, -280.22)" d="M 4 440.5 C 59.6 445.5 109.7 431.5 155.3 397.3 C 107.60000000000001 393.1 75.70000000000002 369.3 57.900000000000006 324.70000000000005 C 73.5 326.6 88.10000000000001 327.1 103.60000000000001 322.90000000000003 C 52.20000000000001 306.90000000000003 24.80000000000001 273.3 21.10000000000001 219.10000000000002 C 36.50000000000001 226.3 51.00000000000001 231.50000000000003 68.10000000000001 231.70000000000002 C 37.60000000000001 208.8 22.000000000000007 179.10000000000002 22.60000000000001 141.70000000000002 C 22.90000000000001 124.50000000000001 27.500000000000007 108.30000000000001 36.60000000000001 93.00000000000001 C 93.1 159.1 164 195.7 251.3 201.8 C 250.8 198 250.5 195 250.10000000000002 191.9 C 242.90000000000003 136.5 278.90000000000003 86.10000000000001 333.90000000000003 75.60000000000001 C 368.40000000000003 69.00000000000001 398.90000000000003 78.10000000000001 424.70000000000005 101.9 C 428.70000000000005 105.5 432.1 106.30000000000001 437.1 105 C 457.20000000000005 99.9 476.3 92.5 494.8 82.5 C 487.7 105.9 473.1 123.5 453.3 138.3 C 457.8 137.5 462.40000000000003 136.9 466.90000000000003 136 C 471.6 135 476.3 133.9 481.00000000000006 132.6 C 485.50000000000006 131.4 489.90000000000003 130 494.30000000000007 128.5 C 498.80000000000007 127 503.30000000000007 125.3 508.6000000000001 124.4 C 506.00000000000006 128 503.50000000000006 131.8 500.7000000000001 135.3 C 489.1000000000001 150 475.7000000000001 162.9 461.0000000000001 174.4 C 459.5000000000001 175.6 458.2000000000001 178.20000000000002 458.3000000000001 180 C 459.10000000000014 215.5 454.10000000000014 250.1 442.60000000000014 283.7 C 420.0000000000001 349.9 380.60000000000014 403.5 321.5000000000001 441.79999999999995 C 292.3000000000001 460.69999999999993 260.4000000000001 473.09999999999997 226.30000000000013 480.29999999999995 C 192.5000000000001 487.4 158.5000000000001 488.69999999999993 124.40000000000012 484.69999999999993 C 90.20000000000012 480.69999999999993 57.70000000000012 470.5999999999999 27.100000000000122 454.79999999999995 C 19.00000000000012 450.69999999999993 11.200000000000122 446.09999999999997 3.3000000000001215 441.69999999999993 C 3.6 441.3 3.8 440.9 4 440.5 z" stroke-linecap="round" />
</g>
</svg>