<?xml version="1.0" encoding="UTF-8" standalone="no" ?>
<!DOCTYPE svg PUBLIC "-//W3C//DTD SVG 1.1//EN" "http://www.w3.org/Graphics/SVG/1.1/DTD/svg11.dtd">
<svg xmlns="http://www.w3.org/2000/svg" xmlns:xlink="http://www.w3.org/1999/xlink" version="1.1" width="50" height="50" viewBox="0 0 50 50" xml:space="preserve">
<desc>Created with Fabric.js 5.2.4</desc>
<defs>
</defs>
<rect x="0" y="0" width="100%" height="100%" fill="transparent"></rect>
<g transform="matrix(1 0 0 1 25 25)" id="12d80de5-9ff0-4b33-b2ba-92463333aff3"  >
<rect style="stroke: none; stroke-width: 1; stroke-dasharray: none; stroke-linecap: butt; stroke-dashoffset: 0; stroke-linejoin: miter; stroke-miterlimit: 4; fill: rgb(255,0,0); fill-rule: nonzero; opacity: 1; visibility: hidden;" vector-effect="non-scaling-stroke"  x="-25" y="-25" rx="0" ry="0" width="50" height="50" />
</g>
<g transform="matrix(Infinity NaN NaN Infinity 0 0)" id="7318b999-b8ac-4d6e-88d3-dc268bb3f987"  >
</g>
<g transform="matrix(0.05 0 0 0.05 77.69 77.69)"  >
<g style="" vector-effect="non-scaling-stroke"   >
		<g transform="matrix(1 0 0 1 0 0)"  >
<path style="stroke: none; stroke-width: 1; stroke-dasharray: none; stroke-linecap: butt; stroke-dashoffset: 0; stroke-linejoin: miter; stroke-miterlimit: 4; fill: none; fill-rule: nonzero; opacity: 1;" vector-effect="non-scaling-stroke"  transform=" translate(-12, -12)" d="M 0 0 L 24 0 L 24 24 L 0 24 z" stroke-linecap="round" />
</g>
		<g transform="matrix(1 0 0 1 0 -0.06)"  >
<path style="stroke: none; stroke-width: 1; stroke-dasharray: none; stroke-linecap: butt; stroke-dashoffset: 0; stroke-linejoin: miter; stroke-miterlimit: 4; fill: rgb(0,0,0); fill-rule: nonzero; opacity: 1;" vector-effect="non-scaling-stroke"  transform=" translate(-12, -11.94)" d="M 12 2 C 6.477 2 2 6.477 2 12 C 2 16.991 5.657 21.128 10.438 21.878999999999998 L 10.438 14.89 L 7.898000000000001 14.89 L 7.898000000000001 12 L 10.438 12 L 10.438 9.797 C 10.438 7.291 11.93 5.907 14.215 5.907 C 15.309 5.907 16.453 6.102 16.453 6.102 L 16.453 8.562000000000001 L 15.193 8.562000000000001 C 13.95 8.562000000000001 13.562999999999999 9.333000000000002 13.562999999999999 10.124 L 13.562999999999999 12 L 16.336 12 L 15.892999999999999 14.89 L 13.562999999999999 14.89 L 13.562999999999999 21.879 C 18.343 21.129 22 16.99 22 12 C 22 6.477 17.523 2 12 2 z" stroke-linecap="round" />
</g>
</g>
</g>
<g transform="matrix(0.36 0 0 0.36 25 25)"  >
<g style="" vector-effect="non-scaling-stroke"   >
		<g transform="matrix(1 0 0 1 0 0)"  >
<rect style="stroke: none; stroke-width: 1; stroke-dasharray: none; stroke-linecap: butt; stroke-dashoffset: 0; stroke-linejoin: miter; stroke-miterlimit: 4; fill: none; fill-rule: evenodd; opacity: 1;" vector-effect="non-scaling-stroke"  x="-64" y="-64" rx="0" ry="0" width="128" height="128" />
</g>
		<g transform="matrix(1 0 0 1 0 0)" id="Twitter_1_"  >
<path style="stroke: none; stroke-width: 1; stroke-dasharray: none; stroke-linecap: butt; stroke-dashoffset: 0; stroke-linejoin: miter; stroke-miterlimit: 4; fill: rgb(0,170,236); fill-rule: evenodd; opacity: 1;" vector-effect="non-scaling-stroke"  transform=" translate(-64, -64)" d="M 128 23.294 C 123.297 25.436 118.233 26.884 112.92099999999999 27.531 C 118.345 24.203 122.508 18.924999999999997 124.469 12.639 C 119.39 15.721 113.77799999999999 17.963 107.782 19.165 C 103.00399999999999 13.934 96.17399999999999 10.667 88.616 10.667 C 74.123 10.667 62.364999999999995 22.724 62.364999999999995 37.594 C 62.364999999999995 39.705 62.589999999999996 41.754000000000005 63.041 43.727000000000004 C 41.217 42.601 21.871 31.892 8.91 15.582 C 6.649 19.573 5.356 24.203000000000003 5.356 29.134 C 5.356 38.472 9.992 46.715 17.039 51.546 C 12.742 51.415 8.684000000000001 50.19 5.138000000000002 48.187 L 5.138000000000002 48.518 C 5.138000000000002 61.569 14.191000000000003 72.455 26.212000000000003 74.92099999999999 C 24.011000000000003 75.553 21.689000000000004 75.86899999999999 19.292 75.86899999999999 C 17.602 75.86899999999999 15.949000000000002 75.70699999999998 14.348000000000003 75.39099999999999 C 17.691000000000003 86.085 27.383000000000003 93.874 38.878 94.082 C 29.892 101.309 18.563 105.615 6.264000000000003 105.615 C 4.145000000000003 105.615 2.049000000000003 105.49199999999999 -0.001999999999997115 105.24499999999999 C 11.621000000000002 112.87199999999999 25.43 117.33299999999998 40.25300000000001 117.33299999999998 C 88.56200000000001 117.33299999999998 114.97 76.30699999999999 114.97 40.72099999999999 C 114.97 39.54999999999999 114.947 38.37899999999999 114.902 37.23099999999999 C 120.036 33.433 124.491 28.695 128 23.294" stroke-linecap="round" />
</g>
</g>
</g>
</svg>